<svg width="72" height="94" viewBox="0 0 72 94" fill="none" xmlns="http://www.w3.org/2000/svg">
<path d="M1.67917 14.5246C4.67926 11.5244 14.0792 14.7246 21.6792 19.5246L13.1793 35.0246C11.0126 31.1913 7.17896 27.5244 1.17917 20.0246C0.512508 19.358 -0.129928 16.3335 1.67917 14.5246Z" fill="#9DCE9D" stroke="#006100" stroke-opacity="0.52"/>
<path d="M8.67889 38.5245C10.6789 31.5245 21.679 6.52456 41.1789 1.02453C64.679 -3.47544 76.179 22.0249 69.679 37.5245C67.679 40.3579 63.279 47.5245 61.679 53.5245C61.179 57.0245 60.879 65.0245 63.679 69.0245C65.179 71.1674 64.4292 75.2742 62.679 77.0245C60.1789 79.5246 55.179 78.2745 52.179 76.0245C50.179 74.5246 48.929 76.5246 48.179 78.5246C46.679 82.5246 49.679 92.5245 45.179 92.5245C39.679 93.5246 33.379 86.5246 32.179 82.0245C31.5123 79.5245 28.679 70.5246 25.179 72.5245C23.679 73.5246 24.679 77.5246 24.679 81.5245C24.679 84.2445 21.679 88.0246 18.1789 85.5245C12.5122 78.5245 2.67889 59.3245 8.67889 38.5245Z" fill="#D8FFD8" stroke="#006100" stroke-opacity="0.37"/>
<path d="M11.1791 39.5237C13.6791 26.0238 33.6788 2.52268 43.179 3.02307C51.179 1.52295 68.679 10.0233 64.1791 24.5237C57.0124 31.0237 42.679 39.5237 49.6791 66.0237C50.179 73.0238 26.1789 70.0238 16.6791 63.5237C12.958 60.9776 8.67895 53.0236 11.1791 39.5237Z" fill="white" fill-opacity="0.25"/>
<path d="M47.6791 51.5246C46.1791 47.5246 42.6792 41.0244 38.6791 37.5246C37.679 35.0244 41.1792 34.0246 42.6791 34.0246C44.0124 33.8579 48.5791 34.6246 56.1791 39.0246L47.6791 51.5246Z" fill="#BBEABB"/>
<circle cx="7.72259" cy="7.72259" r="7.72259" transform="matrix(-0.991861 -0.127323 -0.127323 0.991861 55.8081 13.8799)" fill="#006100"/>
<ellipse cx="3.84261" cy="2.12367" rx="3.84261" ry="2.12367" transform="matrix(-0.937782 -0.347225 -0.347225 0.937782 54.3359 8.8457)" fill="#006100"/>
<ellipse cx="3.6145" cy="1.93532" rx="3.6145" ry="1.93532" transform="matrix(-0.999881 -0.0154501 -0.0154501 0.999881 36.6533 4.83301)" fill="#006100"/>
<circle cx="6.83152" cy="6.83152" r="6.83152" transform="matrix(-0.991861 -0.127323 -0.127323 0.991861 37.6182 10.9458)" fill="#006100"/>
<circle cx="3.26725" cy="3.26725" r="3.26725" transform="matrix(-0.991861 -0.127323 -0.127323 0.991861 47.4678 18.1997)" fill="#AEFFAE"/>
<circle cx="2.97023" cy="2.97023" r="2.97023" transform="matrix(-0.991861 -0.127323 -0.127323 0.991861 35.321 14.8438)" fill="#AEFFAE"/>
<path d="M37.4529 28.9535C37.3456 29.3103 36.9872 30.5725 35.7383 30.7728C34.179 31.0229 32.6115 30.2993 31.6068 27.4287C31.3637 27.9783 30.8173 29.0878 29.8922 29.2481C28.9069 29.4188 27.5801 27.6188 28.3948 26.4628C27.7314 25.5627 25.6964 26.1184 25.7802 28.9456C25.8894 32.6298 30.6797 36.7231 35.1991 36.4479C38.733 36.3429 41.4329 34.3528 41.7356 30.2413C41.9721 28.6775 39.5747 26.5556 37.4529 28.9535Z" fill="#006100"/>
</svg>
