<svg width="2133" height="190" viewBox="0 0 2133 190" fill="none" xmlns="http://www.w3.org/2000/svg">
<g clip-path="url(#clip0_78_27)">
<g filter="url(#filter0_d_78_27)">
<path d="M96.9543 87.3861L208 21L484 59L460.534 134.715L96.9543 87.3861Z" fill="#FAEA93"/>
<path d="M622.125 153.121L671 86.5L945.307 95L945.307 168.897L622.125 153.121Z" fill="#FAEA93"/>
<path d="M1179.61 179.415L1187.5 86.5L1492 75L1527.03 168.897L1179.61 179.415Z" fill="#FAEA93"/>
<path d="M1745.18 142.603L1680.55 68.9804L1947.17 37.4277L2036.05 97.9036L1745.18 142.603Z" fill="#FAEA93"/>
<path d="M419.5 60C419.661 60 419.822 60.0159 419.985 60.0473L460.5 64L451.5 113.5H441C437.085 96.0437 427.516 61.5001 419.985 60.0473L419.5 60Z" fill="white" fill-opacity="0.55"/>
<path d="M912.5 153C909.5 137 900.4 104.3 888 101.5H936.5V153H912.5Z" fill="white" fill-opacity="0.55"/>
<path d="M1471 148C1471 130.833 1459.6 95.1 1414 89.5H1488.5L1505 148H1471Z" fill="white" fill-opacity="0.55"/>
<path d="M2007.6 91.5L1952.6 103C1945.93 84.5 1924.5 57.1 1874.5 59.5L1946 50.5L2007.6 91.5Z" fill="white" fill-opacity="0.55"/>
<path d="M0 55.8333C832.193 211.884 1575.51 187.303 2133 82.1271V197.82V334.548V455.5H1656.31H961.466H161.591H0V324.031V153.121V137.344V55.8333Z" fill="#D1BFE5"/>
<path d="M2133 82.1271C1575.51 187.303 832.193 211.884 0 55.8333V137.344M2133 82.1271V197.82M2133 82.1271C1940.26 126.072 1642.07 181.132 1325.05 246.532M161.591 455.5H0V324.031M161.591 455.5H961.466M161.591 455.5C194.418 451.476 229.535 446.76 266.625 441.429M2133 197.82C1751.65 332.445 1193.08 425.7 961.466 455.5M2133 197.82V334.548M961.466 455.5H1656.31M1656.31 455.5H2133V334.548M1656.31 455.5C1817.9 423.947 2041.43 361.718 2133 334.548M0 137.344C439.527 185.725 1066.5 230.295 1325.05 246.532M0 137.344V153.121M1325.05 246.532C1120.45 288.737 908.012 330.868 711 367.064M0 153.121C200.373 254.089 557.489 337.82 711 367.064M0 153.121V324.031M711 367.064C547.899 397.029 395.372 422.926 266.625 441.429M0 324.031C64.6364 376.618 204.682 424.208 266.625 441.429" stroke="black" stroke-opacity="0.25" stroke-width="6"/>
<path d="M28 415V103C39.3333 105.333 98.5 103 147.5 80.5C88 75.5 59 66.5 0.5 55.5V458.5H2132V80.5C1919.5 126 1564.5 176 1312.5 168C1456.67 191.667 1810.3 220.7 2089.5 137.5V410L28 415Z" fill="black" fill-opacity="0.05"/>
</g>
</g>
<defs>
<filter id="filter0_d_78_27" x="-17" y="21" width="2153" height="451.5" filterUnits="userSpaceOnUse" color-interpolation-filters="sRGB">
<feFlood flood-opacity="0" result="BackgroundImageFix"/>
<feColorMatrix in="SourceAlpha" type="matrix" values="0 0 0 0 0 0 0 0 0 0 0 0 0 0 0 0 0 0 127 0" result="hardAlpha"/>
<feOffset dx="-10" dy="10"/>
<feGaussianBlur stdDeviation="2"/>
<feComposite in2="hardAlpha" operator="out"/>
<feColorMatrix type="matrix" values="0 0 0 0 0 0 0 0 0 0 0 0 0 0 0 0 0 0 0.3 0"/>
<feBlend mode="normal" in2="BackgroundImageFix" result="effect1_dropShadow_78_27"/>
<feBlend mode="normal" in="SourceGraphic" in2="effect1_dropShadow_78_27" result="shape"/>
</filter>
<clipPath id="clip0_78_27">
<rect width="2133" height="190" fill="white"/>
</clipPath>
</defs>
</svg>
