<svg width="1919" height="808" viewBox="0 0 1919 808" fill="none" xmlns="http://www.w3.org/2000/svg">
<g filter="url(#filter0_d_48_12)">
<path d="M332.551 442.906C293.326 442.906 265.005 433.141 247.59 413.609C230.337 394.078 221.711 362.991 221.711 320.348V278.355H306.672V332.066C306.672 341.995 308.137 349.807 311.066 355.504C314.159 361.038 319.449 363.805 326.936 363.805C334.748 363.805 340.119 361.526 343.049 356.969C346.141 352.411 347.688 344.924 347.688 334.508C347.688 321.324 346.385 310.338 343.781 301.549C341.177 292.597 336.62 284.133 330.109 276.158C323.762 268.02 314.891 258.58 303.498 247.838L264.924 211.217C236.115 184.036 221.711 152.949 221.711 117.955C221.711 81.334 230.174 53.4206 247.102 34.2148C264.191 15.0091 288.85 5.40625 321.076 5.40625C360.464 5.40625 388.378 15.9043 404.816 36.9004C421.418 57.8965 429.719 89.7975 429.719 132.604H342.316V103.062C342.316 97.2031 340.607 92.6458 337.189 89.3906C333.934 86.1354 329.458 84.5078 323.762 84.5078C316.926 84.5078 311.88 86.4609 308.625 90.3672C305.533 94.1107 303.986 98.9935 303.986 105.016C303.986 111.038 305.614 117.548 308.869 124.547C312.124 131.546 318.553 139.602 328.156 148.717L377.717 196.324C387.645 205.764 396.76 215.774 405.061 226.354C413.361 236.77 420.035 248.977 425.08 262.975C430.126 276.809 432.648 293.736 432.648 313.756C432.648 354.12 425.161 385.777 410.188 408.727C395.376 431.513 369.497 442.906 332.551 442.906ZM476.457 439V9.3125H589.982C613.745 9.3125 632.544 14.6022 646.379 25.1816C660.376 35.7611 670.386 50.8164 676.408 70.3477C682.43 89.8789 685.441 113.154 685.441 140.172C685.441 166.214 682.919 188.919 677.873 208.287C672.827 227.493 663.794 242.385 650.773 252.965C637.915 263.544 619.605 268.834 595.842 268.834H560.93V439H476.457ZM560.93 191.686H565.812C581.763 191.686 591.529 187.21 595.109 178.258C598.69 169.306 600.48 156.122 600.48 138.707C600.48 122.431 598.69 109.898 595.109 101.109C591.691 92.1576 583.472 87.6816 570.451 87.6816H560.93V191.686ZM830.324 442.906C795.982 442.906 769.696 432.571 751.467 411.9C733.4 391.067 724.367 361.038 724.367 321.812V117.711C724.367 80.9271 733.319 53.0137 751.223 33.9707C769.289 14.9277 795.656 5.40625 830.324 5.40625C864.992 5.40625 891.278 14.9277 909.182 33.9707C927.248 53.0137 936.281 80.9271 936.281 117.711V321.812C936.281 361.038 927.167 391.067 908.938 411.9C890.871 432.571 864.667 442.906 830.324 442.906ZM831.057 363.805C844.077 363.805 850.588 351.191 850.588 325.963V116.246C850.588 95.0872 844.24 84.5078 831.545 84.5078C817.222 84.5078 810.061 95.3314 810.061 116.979V326.451C810.061 339.798 811.688 349.4 814.943 355.26C818.199 360.956 823.57 363.805 831.057 363.805ZM1088.49 442.906C1054.15 442.906 1027.86 432.571 1009.63 411.9C991.564 391.067 982.531 361.038 982.531 321.812V117.711C982.531 80.9271 991.483 53.0137 1009.39 33.9707C1027.45 14.9277 1053.82 5.40625 1088.49 5.40625C1123.16 5.40625 1149.44 14.9277 1167.35 33.9707C1185.41 53.0137 1194.45 80.9271 1194.45 117.711V321.812C1194.45 361.038 1185.33 391.067 1167.1 411.9C1149.04 432.571 1122.83 442.906 1088.49 442.906ZM1089.22 363.805C1102.24 363.805 1108.75 351.191 1108.75 325.963V116.246C1108.75 95.0872 1102.4 84.5078 1089.71 84.5078C1075.39 84.5078 1068.22 95.3314 1068.22 116.979V326.451C1068.22 339.798 1069.85 349.4 1073.11 355.26C1076.36 360.956 1081.73 363.805 1089.22 363.805ZM1244.11 439V9.3125H1329.07V181.432L1369.11 9.3125H1455.54L1407.44 206.09L1465.55 439H1376.44L1329.56 230.992V439H1244.11ZM1547.44 439V297.643L1478.84 9.3125H1564.04L1587.97 154.82L1611.9 9.3125H1696.86L1628.5 297.643V439H1547.44Z" fill="#FF94A9"/>
<path d="M127 428C232 413 221.693 376.5 221.693 327.5V300.5C229.693 298.333 249.2 296.3 262 305.5C268.5 312.667 286.673 327 306.673 327C306.673 341 308 363 327 363C348 363 347.5 339 347.5 328C347.5 309 357 307.559 364 305.5C375 302.265 383.5 301.5 401 310.5C411.5 315.9 428.766 273.5 422.5 257C435 277 433 310.5 433 327H476V230C492.833 260.667 533 323 561 327C561 369 617 382 644.5 382C674 382 727.333 362.5 724.333 327V267C738.733 242.6 761.85 241 769.5 250C776.3 258 790.5 279 810 291.5V327C808.5 354 822.5 362 829.5 362C838.5 362 850.5 355.5 850.5 327V304.5C854.5 272 881 253 904 253C917.5 253 929.607 269.333 936.274 277.5V327H982.5V237.5C1000 270 1030.24 320 1068.24 327C1068.24 355.5 1080 362 1088.5 362C1098.5 362 1108.5 351.5 1108.5 326.5C1110 311 1122.5 307 1137.5 307C1138.5 286 1164 275.507 1194.45 275.507V327.007L1244.12 327V265C1251.62 288 1257 292 1275.5 286C1291.5 276.5 1306.5 307 1329.5 304.317V326.817L1330.5 362.5H1359L1351.19 327C1353.19 317.4 1367.17 318.333 1374 320C1372.5 298.5 1408 284 1426.23 281.5L1438.23 329C1484.23 364.5 1521.5 352.5 1547.5 328V298C1589.9 295.2 1630.33 249.167 1645.5 226L1628.5 298V327C1631.5 373.5 1670.5 405.5 1716.5 412.5V431.5L127 428Z" fill="#9BC732"/>
<path d="M237.682 415.642L1632.68 411.098C1755.83 411.098 1867.65 403.551 1919 520.683V804H1620.85H225.853H0V520.683C0 427.078 105.56 415.642 237.682 415.642Z" fill="#9BC732"/>
<path d="M578.598 774.948C564.769 773.858 557.899 784.321 532.085 803.5H723.436C728.045 797.325 730.717 788.025 727.26 779.307C723.802 768.409 711.126 760.781 685.773 767.319C670.791 776.037 646.59 806.551 615.475 793.473C609.329 787.298 593.349 774.948 578.598 774.948Z" fill="#3D5F03" fill-opacity="0.7"/>
<path d="M676.553 742.255C688.963 760.781 721.497 738.5 718.04 725.909C713.123 708 674.248 729.178 676.553 742.255Z" fill="#3D5F03" fill-opacity="0.7"/>
<path d="M668.486 749.884C665.029 743.345 645.438 752.063 644.286 760.781C644.286 768.5 671.943 760.781 668.486 749.884Z" fill="#3D5F03" fill-opacity="0.7"/>
<path d="M797.557 636.55C791.383 634 780.891 646.5 787.185 651.806C797.557 655 802.167 641.999 797.557 636.55Z" fill="#3D5F03" fill-opacity="0.7"/>
<path d="M1059.16 679.05C1049.94 687.768 1071.83 717.191 1086.81 710.653C1094.88 696.486 1070.5 668.322 1059.16 679.05Z" fill="#3D5F03" fill-opacity="0.7"/>
<path d="M1075.29 647.447C1070.66 655.5 1085.66 662.704 1089.12 661.614C1092.65 655.5 1081.05 645.268 1075.29 647.447Z" fill="#3D5F03" fill-opacity="0.7"/>
<path d="M1101.79 679.05C1097.18 693.217 1113.32 700.845 1119.08 698.666C1123.69 686.678 1109 668.5 1101.79 679.05Z" fill="#3D5F03" fill-opacity="0.7"/>
<path d="M1418.71 440.395C1402.21 456 1426.78 486.165 1437.15 480.716C1447.52 475.267 1430.5 429.245 1418.71 440.395Z" fill="#3D5F03" fill-opacity="0.7"/>
<path d="M1446.37 485.075C1439.45 491.613 1448.67 509.049 1455.59 509.049C1464 509.049 1455.59 478 1446.37 485.075Z" fill="#3D5F03" fill-opacity="0.7"/>
<path d="M455.289 391.357C446.07 388 442 405.806 446.07 407.703C455.289 412 460.5 394 455.289 391.357Z" fill="#3D5F03" fill-opacity="0.7"/>
<path d="M429.936 421.87C424.174 417.511 408.04 433.857 411.497 442.575C425.326 449.113 433.393 427.318 429.936 421.87Z" fill="#3D5F03" fill-opacity="0.7"/>
<path d="M395.363 416.421C372.5 406 406.5 375.372 417.259 380.459C433.393 388.087 417.259 419.69 395.363 416.421Z" fill="#3D5F03" fill-opacity="0.7"/>
<path opacity="0.5" d="M349.5 801.5C373.701 761.179 420.717 737.897 448.375 722.64M359.639 753.153C364.248 771.461 386.913 788.388 397.668 794.563M386.144 732.448C393.52 745.525 412.266 757.512 420.717 761.871M409.193 732.448C418.412 732.448 432.241 740.439 438.003 744.435M545.178 771.679C493.55 774.294 446.07 738.986 431.089 711.743C409.193 680.14 408.04 631.464 409.193 602.768M583.208 765.14C610.866 761.871 631.609 753.153 662.724 722.64M709.973 679.05C723.802 665.973 737.247 641.635 742.241 631.101M842.501 624.563C816.687 638.512 786.033 671.422 780.271 710.653M946.219 618.024C969.267 619.768 994.62 631.101 1006.14 644.178M425.327 487.254C429.936 463.28 446.838 444.391 454.137 437.126M1031.5 669.242C1042.56 677.96 1048.4 696.123 1049.94 704.114M1074.14 588.601C1078.75 618.024 1106.79 644.541 1119.08 658.345M1097.19 436.036C1106.4 389.177 1146.74 386.998 1177.85 382.639M1199.75 376.1C1162.87 369.998 1134.06 364.113 1119.08 381.549M1145.59 696.486C1185.92 746.615 1215.88 771.679 1347.26 765.14M1358.78 721.55C1376.08 729.947 1392.2 746.615 1408.64 762.913M1441.76 801.102C1435.13 790.535 1423.16 779.2 1408.64 762.913M1441.76 771.679L1407.19 796.743M1384.14 767.32C1386.44 750.974 1398.73 738.623 1404.88 731.358M1396.81 771.679L1408.64 762.913M1388.75 730.268C1401.65 720.679 1416.4 711.743 1422.17 677.96M1433.69 659.435C1440.14 631.537 1432.15 591.87 1425.62 571.165M1427 353C1428 385 1413.33 399.348 1406.03 419.69M1403.73 394.626C1408.34 398.113 1417.94 401.891 1422.17 403.344M927.78 746.615C940.687 750.102 952.749 767.32 962.353 778.217C988.858 795.653 1011.91 771.679 1023.43 762.961M691 388.5C728.2 391.7 757.5 440.5 767.5 464.5M694.5 371C711.3 372.2 733.327 386.5 742.241 393.5M1403.73 379C1418.48 387.4 1438.39 388.5 1446.5 388M1412 366C1422.8 368.4 1437.17 365.667 1443 364M1446.5 593C1464.1 613.019 1461.17 645.631 1457.5 659.435M842.501 364C925.475 388.501 986.169 482.209 1006.14 526M842.501 436.036C849.3 393.318 914.479 370.213 946.219 364M895 444C903.4 424.552 939.167 412.897 956 409.5M982 436.036C938.624 430.007 913.593 464.833 906.5 483M972.5 500.5C986 498.5 997.5 500.5 1006.14 489.5" stroke="#143601" stroke-opacity="0.7" stroke-width="4" stroke-linecap="round"/>
<path d="M943.764 736C925.457 727.216 873.884 720.678 819.49 752.063C802.874 758 787.683 727.652 794.136 699.755C801.051 680.14 822.947 634.37 909.378 628.921C973.913 628.921 1056.85 675.781 1021.16 746.614C1001.72 765.5 980.235 753.5 943.764 736Z" fill="#563399"/>
<path d="M898.97 667.063C879.378 660.524 816.363 712.5 838.346 740C848.334 743.633 869.322 728 903.795 728C927.78 723 966.746 748.5 992.226 755C992.226 716.5 970.419 667.063 938.152 670.332C931.237 670.332 926.627 683.409 927.78 696.486C927.012 700.845 922.479 709.563 910.494 709.563C905.5 706.657 894.36 703.024 895.512 694.306C900.122 687.768 908.189 671.422 898.97 667.063Z" fill="#140739" fill-opacity="0.39"/>
<path d="M866.702 674.691C857.867 677.597 838.641 680.154 828.5 654C833.5 650 855.178 635.678 882.836 632.19C885.141 643.451 894.36 665.594 866.702 674.691Z" fill="#F8C536"/>
<path d="M970.419 705.204C962 705.204 949.375 718.436 942 735C953.524 741.902 980 755 994.5 756C1009.48 739.654 1008.45 707.383 970.419 705.204Z" fill="#F8C536"/>
<path d="M867 674C879.942 659.62 876.341 645.699 872.497 636.643C872.247 636.053 872.597 635.381 873.225 635.255L881.108 633.678C881.613 633.577 882.114 633.877 882.257 634.372C886.531 649.173 887.104 666.155 867 674Z" fill="white" fill-opacity="0.55"/>
<path d="M1000.5 723.5C1000.5 733.711 993.176 746.076 982.127 749.797C981.245 750.094 981.131 751.235 982.011 751.537C984.462 752.379 988.303 753.381 992.989 753.941C993.309 753.979 993.626 753.862 993.836 753.617C998.351 748.357 1005.18 735.595 1000.5 723.5Z" fill="white" fill-opacity="0.55"/>
<path d="M499.081 749.883C409.193 713.922 403.661 581.626 436.851 549.37L708.821 645.268C693.456 674.691 612.018 782.576 499.081 749.883Z" fill="#233801" fill-opacity="0.59"/>
<path d="M1324.21 753.153C1244.69 766.23 1168.64 706.293 1136.37 645.268L1415.25 545.011C1426.01 598.045 1444.06 725.909 1324.21 753.153Z" fill="#233801" fill-opacity="0.59"/>
<path d="M529.345 804H117.566L0 803.452V516.981C0 431.5 103.5 420.5 170 417.5C184.8 415.9 197.5 407 206 400C226 382 221.806 352.5 221.806 328V300.5C239.961 295.3 255.833 301.333 261.5 305C269.1 313 285 326.5 306.5 327C306.5 352 314 362.5 326 363C347.5 363.896 347.5 341 347.5 327C346.5 306 363.88 304.163 372.5 303.5C385.5 302.5 396 308 402.5 311C417.5 309 427 269 422.5 257.5C434 274 433 303.5 433 327H476V230C482.167 243.833 497 264.5 508 280.5C500.5 290.5 484.5 310 476 327C411.769 432.607 428.551 703.837 529.345 804Z" fill="#1E3300" fill-opacity="0.17"/>
<path d="M1710.65 804L1326.42 804C1377.8 756.096 1398.63 533.979 1299.94 328.5C1295.85 320 1288.5 289.5 1274 286.5C1280.5 283.5 1282.5 283.5 1288.5 285.5C1295.5 287.833 1314 307 1329.5 304.5L1330.28 362.499L1359 362.5L1351.19 327C1352 321 1360 317 1374 320C1373 305.5 1391 288 1426.5 281.5L1438 329C1491 369.5 1523.5 347 1547.5 328.5V298C1561.5 300.5 1610 280.5 1645.5 226.5L1628.5 297.5C1619.5 391.5 1695 407 1710 411.5C1851.5 415.5 1891.5 459.5 1919 521V804H1710.65Z" fill="#1E3300" fill-opacity="0.17"/>
<ellipse cx="18.1199" cy="8.36638" rx="18.1199" ry="8.36638" transform="matrix(0.869835 0.493343 -0.492761 0.870165 1345.41 386.125)" fill="#F8E648"/>
<ellipse cx="12.1504" cy="5.61013" rx="12.1504" ry="5.61013" transform="matrix(0.869835 0.493343 -0.492761 0.870165 1317.92 379)" fill="#F8E648"/>
<ellipse cx="18.1212" cy="8.36579" rx="18.1212" ry="8.36579" transform="matrix(0.815663 -0.578528 0.577927 0.816088 456.644 413.967)" fill="#F8E648"/>
<ellipse cx="10.3539" cy="4.77996" rx="10.3539" ry="4.77996" transform="matrix(0.815663 -0.578528 0.577927 0.816088 495.613 392.98)" fill="#F8E648"/>
<path d="M762.984 536.293C754.911 632 676.553 701.934 579.75 708.473C492.167 714.389 426.479 633.711 426.479 542.831C426.479 451.952 518.672 378.279 593.579 378.279C689.685 378.279 762.984 445.413 762.984 536.293Z" fill="#FEE7D5"/>
<path d="M654.657 624.562C516.367 686.678 466.136 648 430.164 560C438.231 656.988 522.601 730.192 624.013 697.5C787.386 644.834 786.387 469 700.754 417.51C748.916 470 735.926 578.5 654.657 624.562Z" fill="#ECC9CF" fill-opacity="0.8"/>
<path d="M549.917 616.769C549.917 642.047 534.954 662.539 516.496 662.539C498.039 662.539 483.076 642.047 483.076 616.769C483.076 591.492 498.039 571 516.496 571C534.954 571 549.917 591.492 549.917 616.769Z" fill="#4A2A7A"/>
<ellipse cx="486.533" cy="608.051" rx="21.8959" ry="19.6155" fill="#FFD35D"/>
<path d="M1418.71 554.645C1414.1 647.447 1363.94 707 1264.29 710.653C1173.91 710.653 1084.51 629.694 1084.51 535.203C1084.51 440.713 1153.16 383.728 1243.54 383.728C1333.92 383.728 1418.71 452.382 1418.71 554.645Z" fill="#FEE7D5"/>
<ellipse cx="32.8194" cy="46.6722" rx="32.8194" ry="46.6722" transform="matrix(0.829346 -0.558735 0.601746 0.798687 1241.25 446.52)" fill="#4A2A7A"/>
<path d="M1265.44 649.627C1352.45 653 1397.97 607.127 1416.41 555.908C1414.9 622 1378.92 678.5 1323.47 699C1294.7 709.636 1200.14 729.488 1120.63 632.5C1063.01 545.32 1085.66 460.446 1140.98 418.6C1105.25 464.37 1098.34 620.203 1265.44 649.627Z" fill="#ECC9D0" fill-opacity="0.8"/>
<ellipse cx="1318.45" cy="443.664" rx="20.7435" ry="19.6155" fill="#FFD35D"/>
<path d="M989 236C987.5 240.5 995 256.5 1007 262.5C1007 137 1000.5 70.5 1041 14.5C1036 17.6667 989 56.0003 989 106.5V236Z" fill="white" fill-opacity="0.35"/>
<path d="M749 234C744.2 231.6 734.167 247 731 250.5V103C731 52.5 774 24.1667 779 21C738.5 77 749 108.5 749 234Z" fill="white" fill-opacity="0.35"/>
<path d="M499 14.8228L500 259L481 234V14.8228L499 14.8228Z" fill="white" fill-opacity="0.35"/>
<path d="M243.5 128C240.5 167.5 318 221.5 344 256.5C359 273 364.5 282 364.5 295C359.3 293 352.667 297.806 350 299.973C350 274.973 287.646 224.339 255 188.973C237 169.473 223 127.5 228.5 118.5C228.5 69.4998 245.5 21.5 303.5 14.8228C253 35.5 236.5 89.5 243.5 128Z" fill="white" fill-opacity="0.35"/>
<path d="M1267.5 14.5V284.5L1256 278.5L1251.5 259.5L1252.5 14.5H1267.5Z" fill="white" fill-opacity="0.35"/>
<path d="M1488 19.5L1552.5 284.5C1560.5 282.9 1562.83 274.5 1566 270.5L1503.5 19.5H1488Z" fill="white" fill-opacity="0.35"/>
<path d="M237 280.5V296C235.4 296 226.667 297 224.5 297.5V280.5H237Z" fill="white" fill-opacity="0.35"/>
</g>
<defs>
<filter id="filter0_d_48_12" x="-9" y="1.40625" width="1928" height="806.594" filterUnits="userSpaceOnUse" color-interpolation-filters="sRGB">
<feFlood flood-opacity="0" result="BackgroundImageFix"/>
<feColorMatrix in="SourceAlpha" type="matrix" values="0 0 0 0 0 0 0 0 0 0 0 0 0 0 0 0 0 0 127 0" result="hardAlpha"/>
<feOffset dx="-5"/>
<feGaussianBlur stdDeviation="2"/>
<feComposite in2="hardAlpha" operator="out"/>
<feColorMatrix type="matrix" values="0 0 0 0 0 0 0 0 0 0 0 0 0 0 0 0 0 0 0.4 0"/>
<feBlend mode="normal" in2="BackgroundImageFix" result="effect1_dropShadow_48_12"/>
<feBlend mode="normal" in="SourceGraphic" in2="effect1_dropShadow_48_12" result="shape"/>
</filter>
</defs>
</svg>
